# xmcd
#
# Track frame offsets: 
#        150
#        14134
#        30789
#        45997
#        57719
#        68783
#        89723
#        101290
#        118785
#        132185
#        142493
#        171789
#        185613
#        198880
#        211246
#        227718
#        246511
#
# Disc length: 3438 seconds
#
# Revision: 12
# Processed by: cddbd v1.5.2PL0 Copyright (c) Steve Scherf et al.
# Submitted via: ExactAudioCopy v0.95b4
#
DISCID=fb0d6c11
DTITLE=Various Artist - House of Blues - Essential Blues - Harmonica [CD2)
DYEAR=1997
DGENRE=Blues
TTITLE0=Rod Piazza and the Mighty Flyers - The Bounce
TTITLE1=Little Sammy Davis - I Ain't Lyin'
TTITLE2=Snooky Pryor - Stick Way Out Behind
TTITLE3=Jimmy Reed - Boogie In the Dark
TTITLE4=Bill "Jazz" Gillum - Gillum's Windy Blues
TTITLE5=Kim Wilson - Lowdown
TTITLE6=Howlin' Wolf - Sittin' On Top of the World
TTITLE7=Carey Bell - Carey Bell's Blues Harp
TTITLE8=Little George Smith - Blues In the Dark
TTITLE9=Walter "Shakey" Horton - Need My Baby
TTITLE10=Sugar Blue - Little Red Rooster
TTITLE11=John Lee "Sonny Boy" Williamson - Good Morning School Girl
TTITLE12=Raful Neal - Blues On the Moon
TTITLE13=Louis Myers and the Aces - Just Wailin'
TTITLE14=Kenny Neal - Going To the Country
TTITLE15=Big Leon Brooks - Sugar Mama
TTITLE16=Junior Parker - Sweet Home Chicago
EXTD=LABEL =House of Blues - Platinum Entertainment, Inc.\nID =514161
EXTD=3002\nUPC =751416-1300-26\nCOPYRIGHT=1997
EXTT0=
EXTT1=
EXTT2=
EXTT3=
EXTT4=
EXTT5=
EXTT6=
EXTT7=
EXTT8=
EXTT9=
EXTT10=
EXTT11=
EXTT12=
EXTT13=
EXTT14=
EXTT15=
EXTT16=
PLAYORDER=
